<mxfile host="app.diagrams.net" modified="2021-12-20T00:33:53.385Z" agent="5.0 (X11)" etag="yr-LnbL5M5f4stXDCoih" version="16.0.0" type="github" pages="2">
  <diagram id="FKH9xnnsTZAtCRlVI5i5" name="ClassFailure">
    <mxGraphModel dx="643" dy="364" grid="1" gridSize="10" guides="1" tooltips="1" connect="1" arrows="1" fold="1" page="0" pageScale="1" pageWidth="827" pageHeight="1169" math="0" shadow="0">
      <root>
        <mxCell id="n5vFqfEh_vwohT_7xcqo-0" />
        <mxCell id="n5vFqfEh_vwohT_7xcqo-1" parent="n5vFqfEh_vwohT_7xcqo-0" />
        <mxCell id="47Y2wUzRvDj-aJ_IF3__-0" value="CFailureDetector" style="swimlane;fontStyle=1;align=center;verticalAlign=top;childLayout=stackLayout;horizontal=1;startSize=26;horizontalStack=0;resizeParent=1;resizeParentMax=0;resizeLast=0;collapsible=1;marginBottom=0;fillColor=#FAE5C7;strokeColor=#0F8B8D;fontColor=#143642;" parent="n5vFqfEh_vwohT_7xcqo-1" vertex="1">
          <mxGeometry x="180" y="60" width="230" height="160" as="geometry" />
        </mxCell>
        <mxCell id="47Y2wUzRvDj-aJ_IF3__-1" value="&#xa;" style="text;strokeColor=none;fillColor=none;align=left;verticalAlign=top;spacingLeft=4;spacingRight=4;overflow=hidden;rotatable=0;points=[[0,0.5],[1,0.5]];portConstraint=eastwest;fontColor=#143642;" parent="47Y2wUzRvDj-aJ_IF3__-0" vertex="1">
          <mxGeometry y="26" width="230" height="24" as="geometry" />
        </mxCell>
        <mxCell id="47Y2wUzRvDj-aJ_IF3__-2" value="" style="line;strokeWidth=1;fillColor=none;align=left;verticalAlign=middle;spacingTop=-1;spacingLeft=3;spacingRight=3;rotatable=0;labelPosition=right;points=[];portConstraint=eastwest;labelBackgroundColor=#DAD2D8;strokeColor=#0F8B8D;fontColor=#143642;" parent="47Y2wUzRvDj-aJ_IF3__-0" vertex="1">
          <mxGeometry y="50" width="230" height="8" as="geometry" />
        </mxCell>
        <mxCell id="47Y2wUzRvDj-aJ_IF3__-3" value="+ FailureDetector(void)&#xa;+ ~FailureDetector(void)&#xa;+ open(void) bool&#xa;+ close(void) bool&#xa;&#xa;- failureDetectIsr(void) bool" style="text;strokeColor=none;fillColor=none;align=left;verticalAlign=top;spacingLeft=4;spacingRight=4;overflow=hidden;rotatable=0;points=[[0,0.5],[1,0.5]];portConstraint=eastwest;fontColor=#143642;spacing=2;fontStyle=0" parent="47Y2wUzRvDj-aJ_IF3__-0" vertex="1">
          <mxGeometry y="58" width="230" height="102" as="geometry" />
        </mxCell>
      </root>
    </mxGraphModel>
  </diagram>
  <diagram id="DFFFqKCfztG0uuc3UwyK" name="ClassCamera">
    <mxGraphModel dx="771" dy="437" grid="1" gridSize="10" guides="1" tooltips="1" connect="1" arrows="1" fold="1" page="0" pageScale="1" pageWidth="827" pageHeight="1169" math="0" shadow="0">
      <root>
        <mxCell id="tGYLlkDaMArEL-187-7h-0" />
        <mxCell id="tGYLlkDaMArEL-187-7h-1" parent="tGYLlkDaMArEL-187-7h-0" />
        <mxCell id="tGYLlkDaMArEL-187-7h-2" value="CCamera" style="swimlane;fontStyle=1;align=center;verticalAlign=top;childLayout=stackLayout;horizontal=1;startSize=26;horizontalStack=0;resizeParent=1;resizeParentMax=0;resizeLast=0;collapsible=1;marginBottom=0;fillColor=#FAE5C7;strokeColor=#0F8B8D;fontColor=#143642;" parent="tGYLlkDaMArEL-187-7h-1" vertex="1">
          <mxGeometry x="50" y="80" width="230" height="340" as="geometry" />
        </mxCell>
        <mxCell id="tGYLlkDaMArEL-187-7h-3" value="- mutChangePWM : mutex&#xa;- condCameraAcquire : cond_variable&#xa;- cameraDev : VideoCapture&#xa;- image* : unsigned char&#xa;- parks* : unsigned char&#xa;- timSampleCam : const int&#xa;- timCamMax : const int &#xa;&#xa;&#xa;" style="text;strokeColor=none;fillColor=none;align=left;verticalAlign=top;spacingLeft=4;spacingRight=4;overflow=hidden;rotatable=0;points=[[0,0.5],[1,0.5]];portConstraint=eastwest;fontColor=#143642;" parent="tGYLlkDaMArEL-187-7h-2" vertex="1">
          <mxGeometry y="26" width="230" height="114" as="geometry" />
        </mxCell>
        <mxCell id="tGYLlkDaMArEL-187-7h-4" value="" style="line;strokeWidth=1;fillColor=none;align=left;verticalAlign=middle;spacingTop=-1;spacingLeft=3;spacingRight=3;rotatable=0;labelPosition=right;points=[];portConstraint=eastwest;labelBackgroundColor=#DAD2D8;strokeColor=#0F8B8D;fontColor=#143642;" parent="tGYLlkDaMArEL-187-7h-2" vertex="1">
          <mxGeometry y="140" width="230" height="8" as="geometry" />
        </mxCell>
        <mxCell id="tGYLlkDaMArEL-187-7h-5" value="+ Camera(void)&#xa;+ ~Camera(void)&#xa;+ open(void) bool&#xa;+ close(void) bool&#xa;+ isOpen(void) bool&#xa;&#xa;- tCamera(void*) void&#xa;- captureFrame(void) bool&#xa;- processFrame(void) void&#xa;- searchParkingSpots(void) void&#xa;- detectCars(void) void&#xa;- setTimer(IN timer : int) void&#xa;- disableTimer(IN timer : int) void" style="text;strokeColor=none;fillColor=none;align=left;verticalAlign=top;spacingLeft=4;spacingRight=4;overflow=hidden;rotatable=0;points=[[0,0.5],[1,0.5]];portConstraint=eastwest;fontColor=#143642;spacing=2;fontStyle=0" parent="tGYLlkDaMArEL-187-7h-2" vertex="1">
          <mxGeometry y="148" width="230" height="192" as="geometry" />
        </mxCell>
      </root>
    </mxGraphModel>
  </diagram>
</mxfile>
